<mxfile host="app.diagrams.net" agent="Mozilla/5.0 (Windows NT 10.0; Win64; x64) AppleWebKit/537.36 (KHTML, like Gecko) Chrome/135.0.0.0 Safari/537.36" version="26.2.14">
  <diagram id="C5RBs43oDa-KdzZeNtuy" name="Page-1">
    <mxGraphModel dx="1613" dy="451" grid="1" gridSize="10" guides="1" tooltips="1" connect="1" arrows="1" fold="1" page="1" pageScale="1" pageWidth="827" pageHeight="1169" math="0" shadow="0">
      <root>
        <mxCell id="WIyWlLk6GJQsqaUBKTNV-0" />
        <mxCell id="WIyWlLk6GJQsqaUBKTNV-1" parent="WIyWlLk6GJQsqaUBKTNV-0" />
        <mxCell id="08lXmjjYTGvoLmH3V8x4-13" value="" style="edgeStyle=orthogonalEdgeStyle;rounded=0;orthogonalLoop=1;jettySize=auto;html=1;" edge="1" parent="WIyWlLk6GJQsqaUBKTNV-1" source="08lXmjjYTGvoLmH3V8x4-0" target="08lXmjjYTGvoLmH3V8x4-12">
          <mxGeometry relative="1" as="geometry" />
        </mxCell>
        <mxCell id="08lXmjjYTGvoLmH3V8x4-101" style="edgeStyle=orthogonalEdgeStyle;rounded=0;orthogonalLoop=1;jettySize=auto;html=1;exitX=1;exitY=0.5;exitDx=0;exitDy=0;entryX=0;entryY=0.5;entryDx=0;entryDy=0;" edge="1" parent="WIyWlLk6GJQsqaUBKTNV-1" source="08lXmjjYTGvoLmH3V8x4-0" target="08lXmjjYTGvoLmH3V8x4-2">
          <mxGeometry relative="1" as="geometry" />
        </mxCell>
        <mxCell id="08lXmjjYTGvoLmH3V8x4-102" style="edgeStyle=orthogonalEdgeStyle;rounded=0;orthogonalLoop=1;jettySize=auto;html=1;exitX=0;exitY=0.5;exitDx=0;exitDy=0;entryX=1;entryY=0.5;entryDx=0;entryDy=0;" edge="1" parent="WIyWlLk6GJQsqaUBKTNV-1" source="08lXmjjYTGvoLmH3V8x4-0" target="08lXmjjYTGvoLmH3V8x4-1">
          <mxGeometry relative="1" as="geometry" />
        </mxCell>
        <mxCell id="08lXmjjYTGvoLmH3V8x4-0" value="RESERVA" style="rhombus;whiteSpace=wrap;html=1;fillColor=#fff2cc;strokeColor=#d6b656;" vertex="1" parent="WIyWlLk6GJQsqaUBKTNV-1">
          <mxGeometry x="350" y="175" width="200" height="145" as="geometry" />
        </mxCell>
        <mxCell id="08lXmjjYTGvoLmH3V8x4-1" value="USUARIO" style="rounded=0;whiteSpace=wrap;html=1;fillColor=#dae8fc;strokeColor=none;" vertex="1" parent="WIyWlLk6GJQsqaUBKTNV-1">
          <mxGeometry x="90" y="185" width="120" height="60" as="geometry" />
        </mxCell>
        <mxCell id="08lXmjjYTGvoLmH3V8x4-2" value="COWORKING" style="rounded=0;whiteSpace=wrap;html=1;fillColor=#d5e8d4;strokeColor=#82b366;" vertex="1" parent="WIyWlLk6GJQsqaUBKTNV-1">
          <mxGeometry x="640" y="230" width="120" height="65" as="geometry" />
        </mxCell>
        <mxCell id="08lXmjjYTGvoLmH3V8x4-108" style="edgeStyle=orthogonalEdgeStyle;rounded=0;orthogonalLoop=1;jettySize=auto;html=1;exitX=1;exitY=0.5;exitDx=0;exitDy=0;entryX=0;entryY=0.5;entryDx=0;entryDy=0;" edge="1" parent="WIyWlLk6GJQsqaUBKTNV-1" source="08lXmjjYTGvoLmH3V8x4-3" target="08lXmjjYTGvoLmH3V8x4-1">
          <mxGeometry relative="1" as="geometry" />
        </mxCell>
        <mxCell id="08lXmjjYTGvoLmH3V8x4-3" value="NOMBRE" style="ellipse;whiteSpace=wrap;html=1;" vertex="1" parent="WIyWlLk6GJQsqaUBKTNV-1">
          <mxGeometry x="-50" y="185" width="80" height="50" as="geometry" />
        </mxCell>
        <mxCell id="08lXmjjYTGvoLmH3V8x4-107" style="edgeStyle=orthogonalEdgeStyle;rounded=0;orthogonalLoop=1;jettySize=auto;html=1;exitX=1;exitY=0.5;exitDx=0;exitDy=0;entryX=0.5;entryY=1;entryDx=0;entryDy=0;" edge="1" parent="WIyWlLk6GJQsqaUBKTNV-1" source="08lXmjjYTGvoLmH3V8x4-4" target="08lXmjjYTGvoLmH3V8x4-1">
          <mxGeometry relative="1" as="geometry" />
        </mxCell>
        <mxCell id="08lXmjjYTGvoLmH3V8x4-4" value="APELLIDO" style="ellipse;whiteSpace=wrap;html=1;" vertex="1" parent="WIyWlLk6GJQsqaUBKTNV-1">
          <mxGeometry x="-40" y="250" width="80" height="45" as="geometry" />
        </mxCell>
        <mxCell id="08lXmjjYTGvoLmH3V8x4-104" style="edgeStyle=orthogonalEdgeStyle;rounded=0;orthogonalLoop=1;jettySize=auto;html=1;exitX=0.5;exitY=0;exitDx=0;exitDy=0;entryX=0.5;entryY=1;entryDx=0;entryDy=0;" edge="1" parent="WIyWlLk6GJQsqaUBKTNV-1" source="08lXmjjYTGvoLmH3V8x4-5" target="08lXmjjYTGvoLmH3V8x4-1">
          <mxGeometry relative="1" as="geometry" />
        </mxCell>
        <mxCell id="08lXmjjYTGvoLmH3V8x4-5" value="EDAD" style="ellipse;whiteSpace=wrap;html=1;" vertex="1" parent="WIyWlLk6GJQsqaUBKTNV-1">
          <mxGeometry x="110" y="310" width="80" height="40" as="geometry" />
        </mxCell>
        <mxCell id="08lXmjjYTGvoLmH3V8x4-103" style="edgeStyle=orthogonalEdgeStyle;rounded=0;orthogonalLoop=1;jettySize=auto;html=1;exitX=0;exitY=0;exitDx=0;exitDy=0;entryX=0.5;entryY=1;entryDx=0;entryDy=0;" edge="1" parent="WIyWlLk6GJQsqaUBKTNV-1" source="08lXmjjYTGvoLmH3V8x4-6" target="08lXmjjYTGvoLmH3V8x4-1">
          <mxGeometry relative="1" as="geometry" />
        </mxCell>
        <mxCell id="08lXmjjYTGvoLmH3V8x4-6" value="PAIS" style="ellipse;whiteSpace=wrap;html=1;" vertex="1" parent="WIyWlLk6GJQsqaUBKTNV-1">
          <mxGeometry x="200" y="290" width="80" height="40" as="geometry" />
        </mxCell>
        <mxCell id="08lXmjjYTGvoLmH3V8x4-112" style="edgeStyle=orthogonalEdgeStyle;rounded=0;orthogonalLoop=1;jettySize=auto;html=1;exitX=0;exitY=1;exitDx=0;exitDy=0;entryX=0.5;entryY=0;entryDx=0;entryDy=0;" edge="1" parent="WIyWlLk6GJQsqaUBKTNV-1" source="08lXmjjYTGvoLmH3V8x4-7" target="08lXmjjYTGvoLmH3V8x4-1">
          <mxGeometry relative="1" as="geometry">
            <Array as="points">
              <mxPoint x="213" y="180" />
              <mxPoint x="180" y="180" />
              <mxPoint x="180" y="165" />
              <mxPoint x="150" y="165" />
            </Array>
          </mxGeometry>
        </mxCell>
        <mxCell id="08lXmjjYTGvoLmH3V8x4-7" value="CIUDAD" style="ellipse;whiteSpace=wrap;html=1;" vertex="1" parent="WIyWlLk6GJQsqaUBKTNV-1">
          <mxGeometry x="200" y="130" width="90" height="45" as="geometry" />
        </mxCell>
        <mxCell id="08lXmjjYTGvoLmH3V8x4-106" style="edgeStyle=orthogonalEdgeStyle;rounded=0;orthogonalLoop=1;jettySize=auto;html=1;exitX=1;exitY=0;exitDx=0;exitDy=0;entryX=0.5;entryY=1;entryDx=0;entryDy=0;" edge="1" parent="WIyWlLk6GJQsqaUBKTNV-1" source="08lXmjjYTGvoLmH3V8x4-8" target="08lXmjjYTGvoLmH3V8x4-1">
          <mxGeometry relative="1" as="geometry" />
        </mxCell>
        <mxCell id="08lXmjjYTGvoLmH3V8x4-8" value="IDIOMA" style="ellipse;whiteSpace=wrap;html=1;" vertex="1" parent="WIyWlLk6GJQsqaUBKTNV-1">
          <mxGeometry x="10" y="300" width="90" height="40" as="geometry" />
        </mxCell>
        <mxCell id="08lXmjjYTGvoLmH3V8x4-109" style="edgeStyle=orthogonalEdgeStyle;rounded=0;orthogonalLoop=1;jettySize=auto;html=1;exitX=1;exitY=1;exitDx=0;exitDy=0;entryX=0;entryY=0;entryDx=0;entryDy=0;" edge="1" parent="WIyWlLk6GJQsqaUBKTNV-1" source="08lXmjjYTGvoLmH3V8x4-9" target="08lXmjjYTGvoLmH3V8x4-1">
          <mxGeometry relative="1" as="geometry" />
        </mxCell>
        <mxCell id="08lXmjjYTGvoLmH3V8x4-9" value="TIPO ID" style="ellipse;whiteSpace=wrap;html=1;" vertex="1" parent="WIyWlLk6GJQsqaUBKTNV-1">
          <mxGeometry x="-20" y="120" width="80" height="50" as="geometry" />
        </mxCell>
        <mxCell id="08lXmjjYTGvoLmH3V8x4-110" style="edgeStyle=orthogonalEdgeStyle;rounded=0;orthogonalLoop=1;jettySize=auto;html=1;exitX=0.5;exitY=1;exitDx=0;exitDy=0;entryX=0.5;entryY=0;entryDx=0;entryDy=0;" edge="1" parent="WIyWlLk6GJQsqaUBKTNV-1" source="08lXmjjYTGvoLmH3V8x4-10" target="08lXmjjYTGvoLmH3V8x4-1">
          <mxGeometry relative="1" as="geometry" />
        </mxCell>
        <mxCell id="08lXmjjYTGvoLmH3V8x4-10" value="ID" style="ellipse;whiteSpace=wrap;html=1;" vertex="1" parent="WIyWlLk6GJQsqaUBKTNV-1">
          <mxGeometry x="50" y="70" width="80" height="50" as="geometry" />
        </mxCell>
        <mxCell id="08lXmjjYTGvoLmH3V8x4-111" style="edgeStyle=orthogonalEdgeStyle;rounded=0;orthogonalLoop=1;jettySize=auto;html=1;exitX=0.5;exitY=1;exitDx=0;exitDy=0;" edge="1" parent="WIyWlLk6GJQsqaUBKTNV-1" source="08lXmjjYTGvoLmH3V8x4-11" target="08lXmjjYTGvoLmH3V8x4-1">
          <mxGeometry relative="1" as="geometry" />
        </mxCell>
        <mxCell id="08lXmjjYTGvoLmH3V8x4-11" value="CORREO" style="ellipse;whiteSpace=wrap;html=1;" vertex="1" parent="WIyWlLk6GJQsqaUBKTNV-1">
          <mxGeometry x="140" y="70" width="80" height="50" as="geometry" />
        </mxCell>
        <mxCell id="08lXmjjYTGvoLmH3V8x4-12" value="CODIGO_RESERVA" style="ellipse;whiteSpace=wrap;html=1;" vertex="1" parent="WIyWlLk6GJQsqaUBKTNV-1">
          <mxGeometry x="375" y="80" width="150" height="40" as="geometry" />
        </mxCell>
        <mxCell id="08lXmjjYTGvoLmH3V8x4-14" value="FECHA_IN" style="ellipse;whiteSpace=wrap;html=1;" vertex="1" parent="WIyWlLk6GJQsqaUBKTNV-1">
          <mxGeometry x="334" y="310" width="80" height="40" as="geometry" />
        </mxCell>
        <mxCell id="08lXmjjYTGvoLmH3V8x4-15" value="FECHA_FIN" style="ellipse;whiteSpace=wrap;html=1;" vertex="1" parent="WIyWlLk6GJQsqaUBKTNV-1">
          <mxGeometry x="480" y="310" width="80" height="40" as="geometry" />
        </mxCell>
        <mxCell id="08lXmjjYTGvoLmH3V8x4-97" style="edgeStyle=orthogonalEdgeStyle;rounded=0;orthogonalLoop=1;jettySize=auto;html=1;exitX=1;exitY=0;exitDx=0;exitDy=0;entryX=0.5;entryY=1;entryDx=0;entryDy=0;" edge="1" parent="WIyWlLk6GJQsqaUBKTNV-1" source="08lXmjjYTGvoLmH3V8x4-16" target="08lXmjjYTGvoLmH3V8x4-0">
          <mxGeometry relative="1" as="geometry" />
        </mxCell>
        <mxCell id="08lXmjjYTGvoLmH3V8x4-16" value="TIEMPO" style="ellipse;whiteSpace=wrap;html=1;" vertex="1" parent="WIyWlLk6GJQsqaUBKTNV-1">
          <mxGeometry x="360" y="360" width="80" height="40" as="geometry" />
        </mxCell>
        <mxCell id="08lXmjjYTGvoLmH3V8x4-99" style="edgeStyle=orthogonalEdgeStyle;rounded=0;orthogonalLoop=1;jettySize=auto;html=1;exitX=0.5;exitY=1;exitDx=0;exitDy=0;entryX=1;entryY=0;entryDx=0;entryDy=0;" edge="1" parent="WIyWlLk6GJQsqaUBKTNV-1" source="08lXmjjYTGvoLmH3V8x4-17" target="08lXmjjYTGvoLmH3V8x4-0">
          <mxGeometry relative="1" as="geometry" />
        </mxCell>
        <mxCell id="08lXmjjYTGvoLmH3V8x4-17" value="TIPO_ESP" style="ellipse;whiteSpace=wrap;html=1;" vertex="1" parent="WIyWlLk6GJQsqaUBKTNV-1">
          <mxGeometry x="480" y="150" width="80" height="40" as="geometry" />
        </mxCell>
        <mxCell id="08lXmjjYTGvoLmH3V8x4-100" style="edgeStyle=orthogonalEdgeStyle;rounded=0;orthogonalLoop=1;jettySize=auto;html=1;exitX=0.5;exitY=1;exitDx=0;exitDy=0;entryX=0;entryY=0;entryDx=0;entryDy=0;" edge="1" parent="WIyWlLk6GJQsqaUBKTNV-1" source="08lXmjjYTGvoLmH3V8x4-18" target="08lXmjjYTGvoLmH3V8x4-0">
          <mxGeometry relative="1" as="geometry" />
        </mxCell>
        <mxCell id="08lXmjjYTGvoLmH3V8x4-18" value="FECHA_CAN" style="ellipse;whiteSpace=wrap;html=1;" vertex="1" parent="WIyWlLk6GJQsqaUBKTNV-1">
          <mxGeometry x="350" y="150" width="80" height="40" as="geometry" />
        </mxCell>
        <mxCell id="08lXmjjYTGvoLmH3V8x4-75" style="edgeStyle=orthogonalEdgeStyle;rounded=0;orthogonalLoop=1;jettySize=auto;html=1;exitX=0.5;exitY=0;exitDx=0;exitDy=0;entryX=0.5;entryY=1;entryDx=0;entryDy=0;" edge="1" parent="WIyWlLk6GJQsqaUBKTNV-1" source="08lXmjjYTGvoLmH3V8x4-21" target="08lXmjjYTGvoLmH3V8x4-32">
          <mxGeometry relative="1" as="geometry" />
        </mxCell>
        <mxCell id="08lXmjjYTGvoLmH3V8x4-21" value="TIPO_ESP" style="ellipse;whiteSpace=wrap;html=1;" vertex="1" parent="WIyWlLk6GJQsqaUBKTNV-1">
          <mxGeometry x="953" y="245" width="80" height="40" as="geometry" />
        </mxCell>
        <mxCell id="08lXmjjYTGvoLmH3V8x4-72" style="edgeStyle=orthogonalEdgeStyle;rounded=0;orthogonalLoop=1;jettySize=auto;html=1;entryX=0.5;entryY=1;entryDx=0;entryDy=0;" edge="1" parent="WIyWlLk6GJQsqaUBKTNV-1" source="08lXmjjYTGvoLmH3V8x4-22" target="08lXmjjYTGvoLmH3V8x4-2">
          <mxGeometry relative="1" as="geometry" />
        </mxCell>
        <mxCell id="08lXmjjYTGvoLmH3V8x4-22" value="DIRECCIÓN" style="ellipse;whiteSpace=wrap;html=1;" vertex="1" parent="WIyWlLk6GJQsqaUBKTNV-1">
          <mxGeometry x="640" y="335" width="80" height="40" as="geometry" />
        </mxCell>
        <mxCell id="08lXmjjYTGvoLmH3V8x4-73" style="edgeStyle=orthogonalEdgeStyle;rounded=0;orthogonalLoop=1;jettySize=auto;html=1;entryX=0.5;entryY=1;entryDx=0;entryDy=0;" edge="1" parent="WIyWlLk6GJQsqaUBKTNV-1" source="08lXmjjYTGvoLmH3V8x4-23" target="08lXmjjYTGvoLmH3V8x4-2">
          <mxGeometry relative="1" as="geometry" />
        </mxCell>
        <mxCell id="08lXmjjYTGvoLmH3V8x4-23" value="TELEFONO" style="ellipse;whiteSpace=wrap;html=1;" vertex="1" parent="WIyWlLk6GJQsqaUBKTNV-1">
          <mxGeometry x="740" y="340" width="80" height="40" as="geometry" />
        </mxCell>
        <mxCell id="08lXmjjYTGvoLmH3V8x4-71" style="edgeStyle=orthogonalEdgeStyle;rounded=0;orthogonalLoop=1;jettySize=auto;html=1;entryX=0.5;entryY=0;entryDx=0;entryDy=0;" edge="1" parent="WIyWlLk6GJQsqaUBKTNV-1" source="08lXmjjYTGvoLmH3V8x4-24" target="08lXmjjYTGvoLmH3V8x4-2">
          <mxGeometry relative="1" as="geometry" />
        </mxCell>
        <mxCell id="08lXmjjYTGvoLmH3V8x4-24" value="CORREO" style="ellipse;whiteSpace=wrap;html=1;" vertex="1" parent="WIyWlLk6GJQsqaUBKTNV-1">
          <mxGeometry x="710" y="140" width="80" height="40" as="geometry" />
        </mxCell>
        <mxCell id="08lXmjjYTGvoLmH3V8x4-70" style="edgeStyle=orthogonalEdgeStyle;rounded=0;orthogonalLoop=1;jettySize=auto;html=1;" edge="1" parent="WIyWlLk6GJQsqaUBKTNV-1" source="08lXmjjYTGvoLmH3V8x4-25" target="08lXmjjYTGvoLmH3V8x4-2">
          <mxGeometry relative="1" as="geometry" />
        </mxCell>
        <mxCell id="08lXmjjYTGvoLmH3V8x4-25" value="ID_COWORKING" style="ellipse;whiteSpace=wrap;html=1;" vertex="1" parent="WIyWlLk6GJQsqaUBKTNV-1">
          <mxGeometry x="590" y="150" width="110" height="40" as="geometry" />
        </mxCell>
        <mxCell id="08lXmjjYTGvoLmH3V8x4-98" style="edgeStyle=orthogonalEdgeStyle;rounded=0;orthogonalLoop=1;jettySize=auto;html=1;exitX=0;exitY=0;exitDx=0;exitDy=0;" edge="1" parent="WIyWlLk6GJQsqaUBKTNV-1" source="08lXmjjYTGvoLmH3V8x4-27" target="08lXmjjYTGvoLmH3V8x4-0">
          <mxGeometry relative="1" as="geometry" />
        </mxCell>
        <mxCell id="08lXmjjYTGvoLmH3V8x4-27" value="ESPACIO" style="ellipse;whiteSpace=wrap;html=1;" vertex="1" parent="WIyWlLk6GJQsqaUBKTNV-1">
          <mxGeometry x="460" y="370" width="80" height="40" as="geometry" />
        </mxCell>
        <mxCell id="08lXmjjYTGvoLmH3V8x4-29" value="DISPONIBILIDAD" style="ellipse;whiteSpace=wrap;html=1;" vertex="1" parent="WIyWlLk6GJQsqaUBKTNV-1">
          <mxGeometry x="910" y="80" width="120" height="50" as="geometry" />
        </mxCell>
        <mxCell id="08lXmjjYTGvoLmH3V8x4-69" style="edgeStyle=orthogonalEdgeStyle;rounded=0;orthogonalLoop=1;jettySize=auto;html=1;exitX=0.5;exitY=1;exitDx=0;exitDy=0;entryX=1;entryY=0;entryDx=0;entryDy=0;" edge="1" parent="WIyWlLk6GJQsqaUBKTNV-1" source="08lXmjjYTGvoLmH3V8x4-30" target="08lXmjjYTGvoLmH3V8x4-31">
          <mxGeometry relative="1" as="geometry" />
        </mxCell>
        <mxCell id="08lXmjjYTGvoLmH3V8x4-76" style="edgeStyle=orthogonalEdgeStyle;rounded=0;orthogonalLoop=1;jettySize=auto;html=1;entryX=0;entryY=0.5;entryDx=0;entryDy=0;" edge="1" parent="WIyWlLk6GJQsqaUBKTNV-1" source="08lXmjjYTGvoLmH3V8x4-30" target="08lXmjjYTGvoLmH3V8x4-32">
          <mxGeometry relative="1" as="geometry" />
        </mxCell>
        <mxCell id="08lXmjjYTGvoLmH3V8x4-30" value="ID_ESPACIO" style="rounded=0;whiteSpace=wrap;html=1;" vertex="1" parent="WIyWlLk6GJQsqaUBKTNV-1">
          <mxGeometry x="850" y="145" width="80" height="30" as="geometry" />
        </mxCell>
        <mxCell id="08lXmjjYTGvoLmH3V8x4-67" style="edgeStyle=orthogonalEdgeStyle;rounded=0;orthogonalLoop=1;jettySize=auto;html=1;exitX=0;exitY=0.5;exitDx=0;exitDy=0;entryX=1;entryY=0;entryDx=0;entryDy=0;" edge="1" parent="WIyWlLk6GJQsqaUBKTNV-1" source="08lXmjjYTGvoLmH3V8x4-31" target="08lXmjjYTGvoLmH3V8x4-2">
          <mxGeometry relative="1" as="geometry" />
        </mxCell>
        <mxCell id="08lXmjjYTGvoLmH3V8x4-31" value="TIENE" style="rhombus;whiteSpace=wrap;html=1;" vertex="1" parent="WIyWlLk6GJQsqaUBKTNV-1">
          <mxGeometry x="780" y="190" width="80" height="40" as="geometry" />
        </mxCell>
        <mxCell id="08lXmjjYTGvoLmH3V8x4-32" value="VALOR" style="ellipse;whiteSpace=wrap;html=1;" vertex="1" parent="WIyWlLk6GJQsqaUBKTNV-1">
          <mxGeometry x="933" y="165" width="120" height="50" as="geometry" />
        </mxCell>
        <mxCell id="08lXmjjYTGvoLmH3V8x4-33" value="PK ID_USUARIO" style="swimlane;fontStyle=0;childLayout=stackLayout;horizontal=1;startSize=30;horizontalStack=0;resizeParent=1;resizeParentMax=0;resizeLast=0;collapsible=1;marginBottom=0;whiteSpace=wrap;html=1;fillColor=#dae8fc;strokeColor=#6c8ebf;" vertex="1" parent="WIyWlLk6GJQsqaUBKTNV-1">
          <mxGeometry x="210" y="475" width="170" height="300" as="geometry" />
        </mxCell>
        <mxCell id="08lXmjjYTGvoLmH3V8x4-34" value="NOMBRE" style="text;strokeColor=none;fillColor=none;align=left;verticalAlign=middle;spacingLeft=4;spacingRight=4;overflow=hidden;points=[[0,0.5],[1,0.5]];portConstraint=eastwest;rotatable=0;whiteSpace=wrap;html=1;" vertex="1" parent="08lXmjjYTGvoLmH3V8x4-33">
          <mxGeometry y="30" width="170" height="30" as="geometry" />
        </mxCell>
        <mxCell id="08lXmjjYTGvoLmH3V8x4-35" value="APELLIDO" style="text;strokeColor=none;fillColor=none;align=left;verticalAlign=middle;spacingLeft=4;spacingRight=4;overflow=hidden;points=[[0,0.5],[1,0.5]];portConstraint=eastwest;rotatable=0;whiteSpace=wrap;html=1;" vertex="1" parent="08lXmjjYTGvoLmH3V8x4-33">
          <mxGeometry y="60" width="170" height="30" as="geometry" />
        </mxCell>
        <mxCell id="08lXmjjYTGvoLmH3V8x4-36" value="EDAD" style="text;strokeColor=none;fillColor=none;align=left;verticalAlign=middle;spacingLeft=4;spacingRight=4;overflow=hidden;points=[[0,0.5],[1,0.5]];portConstraint=eastwest;rotatable=0;whiteSpace=wrap;html=1;" vertex="1" parent="08lXmjjYTGvoLmH3V8x4-33">
          <mxGeometry y="90" width="170" height="30" as="geometry" />
        </mxCell>
        <mxCell id="08lXmjjYTGvoLmH3V8x4-54" value="CORREO" style="text;strokeColor=none;fillColor=none;align=left;verticalAlign=middle;spacingLeft=4;spacingRight=4;overflow=hidden;points=[[0,0.5],[1,0.5]];portConstraint=eastwest;rotatable=0;whiteSpace=wrap;html=1;" vertex="1" parent="08lXmjjYTGvoLmH3V8x4-33">
          <mxGeometry y="120" width="170" height="30" as="geometry" />
        </mxCell>
        <mxCell id="08lXmjjYTGvoLmH3V8x4-114" value="" style="edgeStyle=entityRelationEdgeStyle;fontSize=12;html=1;endArrow=ERmany;rounded=0;entryX=0;entryY=0.5;entryDx=0;entryDy=0;" edge="1" parent="08lXmjjYTGvoLmH3V8x4-33" target="08lXmjjYTGvoLmH3V8x4-50">
          <mxGeometry width="100" height="100" relative="1" as="geometry">
            <mxPoint x="-60" y="245" as="sourcePoint" />
            <mxPoint x="40" y="145" as="targetPoint" />
          </mxGeometry>
        </mxCell>
        <mxCell id="08lXmjjYTGvoLmH3V8x4-55" value="TELEFONO" style="text;strokeColor=none;fillColor=none;align=left;verticalAlign=middle;spacingLeft=4;spacingRight=4;overflow=hidden;points=[[0,0.5],[1,0.5]];portConstraint=eastwest;rotatable=0;whiteSpace=wrap;html=1;" vertex="1" parent="08lXmjjYTGvoLmH3V8x4-33">
          <mxGeometry y="150" width="170" height="30" as="geometry" />
        </mxCell>
        <mxCell id="08lXmjjYTGvoLmH3V8x4-50" value="&lt;span style=&quot;text-align: center;&quot;&gt;COD_IDIOM&lt;/span&gt;" style="text;strokeColor=none;fillColor=none;align=left;verticalAlign=middle;spacingLeft=4;spacingRight=4;overflow=hidden;points=[[0,0.5],[1,0.5]];portConstraint=eastwest;rotatable=0;whiteSpace=wrap;html=1;" vertex="1" parent="08lXmjjYTGvoLmH3V8x4-33">
          <mxGeometry y="180" width="170" height="30" as="geometry" />
        </mxCell>
        <mxCell id="08lXmjjYTGvoLmH3V8x4-51" value="COD_PAIS" style="text;strokeColor=none;fillColor=none;align=left;verticalAlign=middle;spacingLeft=4;spacingRight=4;overflow=hidden;points=[[0,0.5],[1,0.5]];portConstraint=eastwest;rotatable=0;whiteSpace=wrap;html=1;" vertex="1" parent="08lXmjjYTGvoLmH3V8x4-33">
          <mxGeometry y="210" width="170" height="30" as="geometry" />
        </mxCell>
        <mxCell id="08lXmjjYTGvoLmH3V8x4-52" value="COD_CIUDAD" style="text;strokeColor=none;fillColor=none;align=left;verticalAlign=middle;spacingLeft=4;spacingRight=4;overflow=hidden;points=[[0,0.5],[1,0.5]];portConstraint=eastwest;rotatable=0;whiteSpace=wrap;html=1;" vertex="1" parent="08lXmjjYTGvoLmH3V8x4-33">
          <mxGeometry y="240" width="170" height="30" as="geometry" />
        </mxCell>
        <mxCell id="08lXmjjYTGvoLmH3V8x4-53" value="TIPO_ID" style="text;strokeColor=none;fillColor=none;align=left;verticalAlign=middle;spacingLeft=4;spacingRight=4;overflow=hidden;points=[[0,0.5],[1,0.5]];portConstraint=eastwest;rotatable=0;whiteSpace=wrap;html=1;" vertex="1" parent="08lXmjjYTGvoLmH3V8x4-33">
          <mxGeometry y="270" width="170" height="30" as="geometry" />
        </mxCell>
        <mxCell id="08lXmjjYTGvoLmH3V8x4-39" value="&amp;nbsp;PK TIPO_ID" style="swimlane;fontStyle=0;childLayout=stackLayout;horizontal=1;startSize=30;horizontalStack=0;resizeParent=1;resizeParentMax=0;resizeLast=0;collapsible=1;marginBottom=0;whiteSpace=wrap;html=1;" vertex="1" parent="WIyWlLk6GJQsqaUBKTNV-1">
          <mxGeometry x="10" y="400" width="140" height="60" as="geometry" />
        </mxCell>
        <mxCell id="08lXmjjYTGvoLmH3V8x4-40" value="NOM_ID" style="text;strokeColor=none;fillColor=none;align=left;verticalAlign=middle;spacingLeft=4;spacingRight=4;overflow=hidden;points=[[0,0.5],[1,0.5]];portConstraint=eastwest;rotatable=0;whiteSpace=wrap;html=1;" vertex="1" parent="08lXmjjYTGvoLmH3V8x4-39">
          <mxGeometry y="30" width="140" height="30" as="geometry" />
        </mxCell>
        <mxCell id="08lXmjjYTGvoLmH3V8x4-44" value="&amp;nbsp;PK COD_PAIS" style="swimlane;fontStyle=0;childLayout=stackLayout;horizontal=1;startSize=30;horizontalStack=0;resizeParent=1;resizeParentMax=0;resizeLast=0;collapsible=1;marginBottom=0;whiteSpace=wrap;html=1;" vertex="1" parent="WIyWlLk6GJQsqaUBKTNV-1">
          <mxGeometry x="10" y="500" width="140" height="60" as="geometry" />
        </mxCell>
        <mxCell id="08lXmjjYTGvoLmH3V8x4-45" value="NOM_PAIS" style="text;strokeColor=none;fillColor=none;align=left;verticalAlign=middle;spacingLeft=4;spacingRight=4;overflow=hidden;points=[[0,0.5],[1,0.5]];portConstraint=eastwest;rotatable=0;whiteSpace=wrap;html=1;" vertex="1" parent="08lXmjjYTGvoLmH3V8x4-44">
          <mxGeometry y="30" width="140" height="30" as="geometry" />
        </mxCell>
        <mxCell id="08lXmjjYTGvoLmH3V8x4-46" value="&amp;nbsp;PK COD_CIUDAD" style="swimlane;fontStyle=0;childLayout=stackLayout;horizontal=1;startSize=30;horizontalStack=0;resizeParent=1;resizeParentMax=0;resizeLast=0;collapsible=1;marginBottom=0;whiteSpace=wrap;html=1;" vertex="1" parent="WIyWlLk6GJQsqaUBKTNV-1">
          <mxGeometry x="10" y="610" width="140" height="60" as="geometry" />
        </mxCell>
        <mxCell id="08lXmjjYTGvoLmH3V8x4-47" value="NOM_CIUDAD" style="text;strokeColor=none;fillColor=none;align=left;verticalAlign=middle;spacingLeft=4;spacingRight=4;overflow=hidden;points=[[0,0.5],[1,0.5]];portConstraint=eastwest;rotatable=0;whiteSpace=wrap;html=1;" vertex="1" parent="08lXmjjYTGvoLmH3V8x4-46">
          <mxGeometry y="30" width="140" height="30" as="geometry" />
        </mxCell>
        <mxCell id="08lXmjjYTGvoLmH3V8x4-48" value="&amp;nbsp;PK COD_IDIOMA" style="swimlane;fontStyle=0;childLayout=stackLayout;horizontal=1;startSize=30;horizontalStack=0;resizeParent=1;resizeParentMax=0;resizeLast=0;collapsible=1;marginBottom=0;whiteSpace=wrap;html=1;" vertex="1" parent="WIyWlLk6GJQsqaUBKTNV-1">
          <mxGeometry x="10" y="700" width="140" height="60" as="geometry" />
        </mxCell>
        <mxCell id="08lXmjjYTGvoLmH3V8x4-49" value="NOM_IDIOM" style="text;strokeColor=none;fillColor=none;align=left;verticalAlign=middle;spacingLeft=4;spacingRight=4;overflow=hidden;points=[[0,0.5],[1,0.5]];portConstraint=eastwest;rotatable=0;whiteSpace=wrap;html=1;" vertex="1" parent="08lXmjjYTGvoLmH3V8x4-48">
          <mxGeometry y="30" width="140" height="30" as="geometry" />
        </mxCell>
        <mxCell id="08lXmjjYTGvoLmH3V8x4-56" value="PK ID_COWORKING" style="swimlane;fontStyle=0;childLayout=stackLayout;horizontal=1;startSize=30;horizontalStack=0;resizeParent=1;resizeParentMax=0;resizeLast=0;collapsible=1;marginBottom=0;whiteSpace=wrap;html=1;fillColor=#d5e8d4;strokeColor=#82b366;" vertex="1" parent="WIyWlLk6GJQsqaUBKTNV-1">
          <mxGeometry x="730" y="470" width="170" height="180" as="geometry" />
        </mxCell>
        <mxCell id="08lXmjjYTGvoLmH3V8x4-57" value="NOMBRE" style="text;strokeColor=none;fillColor=none;align=left;verticalAlign=middle;spacingLeft=4;spacingRight=4;overflow=hidden;points=[[0,0.5],[1,0.5]];portConstraint=eastwest;rotatable=0;whiteSpace=wrap;html=1;" vertex="1" parent="08lXmjjYTGvoLmH3V8x4-56">
          <mxGeometry y="30" width="170" height="30" as="geometry" />
        </mxCell>
        <mxCell id="08lXmjjYTGvoLmH3V8x4-58" value="DIRECCIÓN" style="text;strokeColor=none;fillColor=none;align=left;verticalAlign=middle;spacingLeft=4;spacingRight=4;overflow=hidden;points=[[0,0.5],[1,0.5]];portConstraint=eastwest;rotatable=0;whiteSpace=wrap;html=1;" vertex="1" parent="08lXmjjYTGvoLmH3V8x4-56">
          <mxGeometry y="60" width="170" height="30" as="geometry" />
        </mxCell>
        <mxCell id="08lXmjjYTGvoLmH3V8x4-60" value="CORREO" style="text;strokeColor=none;fillColor=none;align=left;verticalAlign=middle;spacingLeft=4;spacingRight=4;overflow=hidden;points=[[0,0.5],[1,0.5]];portConstraint=eastwest;rotatable=0;whiteSpace=wrap;html=1;" vertex="1" parent="08lXmjjYTGvoLmH3V8x4-56">
          <mxGeometry y="90" width="170" height="30" as="geometry" />
        </mxCell>
        <mxCell id="08lXmjjYTGvoLmH3V8x4-61" value="TELEFONO" style="text;strokeColor=none;fillColor=none;align=left;verticalAlign=middle;spacingLeft=4;spacingRight=4;overflow=hidden;points=[[0,0.5],[1,0.5]];portConstraint=eastwest;rotatable=0;whiteSpace=wrap;html=1;" vertex="1" parent="08lXmjjYTGvoLmH3V8x4-56">
          <mxGeometry y="120" width="170" height="30" as="geometry" />
        </mxCell>
        <mxCell id="08lXmjjYTGvoLmH3V8x4-62" value="&lt;span style=&quot;text-align: center;&quot;&gt;ID_ESPACIO&lt;/span&gt;" style="text;strokeColor=none;fillColor=none;align=left;verticalAlign=middle;spacingLeft=4;spacingRight=4;overflow=hidden;points=[[0,0.5],[1,0.5]];portConstraint=eastwest;rotatable=0;whiteSpace=wrap;html=1;" vertex="1" parent="08lXmjjYTGvoLmH3V8x4-56">
          <mxGeometry y="150" width="170" height="30" as="geometry" />
        </mxCell>
        <mxCell id="08lXmjjYTGvoLmH3V8x4-74" style="edgeStyle=orthogonalEdgeStyle;rounded=0;orthogonalLoop=1;jettySize=auto;html=1;entryX=0.5;entryY=1;entryDx=0;entryDy=0;" edge="1" parent="WIyWlLk6GJQsqaUBKTNV-1" source="08lXmjjYTGvoLmH3V8x4-66" target="08lXmjjYTGvoLmH3V8x4-2">
          <mxGeometry relative="1" as="geometry" />
        </mxCell>
        <mxCell id="08lXmjjYTGvoLmH3V8x4-66" value="NOMBRE" style="ellipse;whiteSpace=wrap;html=1;" vertex="1" parent="WIyWlLk6GJQsqaUBKTNV-1">
          <mxGeometry x="790" y="290" width="80" height="40" as="geometry" />
        </mxCell>
        <mxCell id="08lXmjjYTGvoLmH3V8x4-77" style="edgeStyle=orthogonalEdgeStyle;rounded=0;orthogonalLoop=1;jettySize=auto;html=1;entryX=0.103;entryY=0.733;entryDx=0;entryDy=0;entryPerimeter=0;" edge="1" parent="WIyWlLk6GJQsqaUBKTNV-1" source="08lXmjjYTGvoLmH3V8x4-30" target="08lXmjjYTGvoLmH3V8x4-29">
          <mxGeometry relative="1" as="geometry" />
        </mxCell>
        <mxCell id="08lXmjjYTGvoLmH3V8x4-79" value="PK ID_ESPACIO" style="swimlane;fontStyle=0;childLayout=stackLayout;horizontal=1;startSize=30;horizontalStack=0;resizeParent=1;resizeParentMax=0;resizeLast=0;collapsible=1;marginBottom=0;whiteSpace=wrap;html=1;" vertex="1" parent="WIyWlLk6GJQsqaUBKTNV-1">
          <mxGeometry x="730" y="700" width="170" height="120" as="geometry" />
        </mxCell>
        <mxCell id="08lXmjjYTGvoLmH3V8x4-80" value="TIPO_ESP" style="text;strokeColor=none;fillColor=none;align=left;verticalAlign=middle;spacingLeft=4;spacingRight=4;overflow=hidden;points=[[0,0.5],[1,0.5]];portConstraint=eastwest;rotatable=0;whiteSpace=wrap;html=1;" vertex="1" parent="08lXmjjYTGvoLmH3V8x4-79">
          <mxGeometry y="30" width="170" height="30" as="geometry" />
        </mxCell>
        <mxCell id="08lXmjjYTGvoLmH3V8x4-81" value="DISPONIBILIDAD" style="text;strokeColor=none;fillColor=none;align=left;verticalAlign=middle;spacingLeft=4;spacingRight=4;overflow=hidden;points=[[0,0.5],[1,0.5]];portConstraint=eastwest;rotatable=0;whiteSpace=wrap;html=1;" vertex="1" parent="08lXmjjYTGvoLmH3V8x4-79">
          <mxGeometry y="60" width="170" height="30" as="geometry" />
        </mxCell>
        <mxCell id="08lXmjjYTGvoLmH3V8x4-82" value="VALOR" style="text;strokeColor=none;fillColor=none;align=left;verticalAlign=middle;spacingLeft=4;spacingRight=4;overflow=hidden;points=[[0,0.5],[1,0.5]];portConstraint=eastwest;rotatable=0;whiteSpace=wrap;html=1;" vertex="1" parent="08lXmjjYTGvoLmH3V8x4-79">
          <mxGeometry y="90" width="170" height="30" as="geometry" />
        </mxCell>
        <mxCell id="08lXmjjYTGvoLmH3V8x4-85" value="PK COD_RESERVA" style="swimlane;fontStyle=0;childLayout=stackLayout;horizontal=1;startSize=30;horizontalStack=0;resizeParent=1;resizeParentMax=0;resizeLast=0;collapsible=1;marginBottom=0;whiteSpace=wrap;html=1;fillColor=#fff2cc;strokeColor=#d6b656;" vertex="1" parent="WIyWlLk6GJQsqaUBKTNV-1">
          <mxGeometry x="440" y="475" width="170" height="210" as="geometry" />
        </mxCell>
        <mxCell id="08lXmjjYTGvoLmH3V8x4-86" value="FECHA_IN" style="text;strokeColor=none;fillColor=none;align=left;verticalAlign=middle;spacingLeft=4;spacingRight=4;overflow=hidden;points=[[0,0.5],[1,0.5]];portConstraint=eastwest;rotatable=0;whiteSpace=wrap;html=1;" vertex="1" parent="08lXmjjYTGvoLmH3V8x4-85">
          <mxGeometry y="30" width="170" height="30" as="geometry" />
        </mxCell>
        <mxCell id="08lXmjjYTGvoLmH3V8x4-87" value="FECHA_CAN" style="text;strokeColor=none;fillColor=none;align=left;verticalAlign=middle;spacingLeft=4;spacingRight=4;overflow=hidden;points=[[0,0.5],[1,0.5]];portConstraint=eastwest;rotatable=0;whiteSpace=wrap;html=1;" vertex="1" parent="08lXmjjYTGvoLmH3V8x4-85">
          <mxGeometry y="60" width="170" height="30" as="geometry" />
        </mxCell>
        <mxCell id="08lXmjjYTGvoLmH3V8x4-88" value="ID_ESPACIO" style="text;strokeColor=none;fillColor=none;align=left;verticalAlign=middle;spacingLeft=4;spacingRight=4;overflow=hidden;points=[[0,0.5],[1,0.5]];portConstraint=eastwest;rotatable=0;whiteSpace=wrap;html=1;" vertex="1" parent="08lXmjjYTGvoLmH3V8x4-85">
          <mxGeometry y="90" width="170" height="30" as="geometry" />
        </mxCell>
        <mxCell id="08lXmjjYTGvoLmH3V8x4-89" value="ID_COWORKING" style="text;strokeColor=none;fillColor=none;align=left;verticalAlign=middle;spacingLeft=4;spacingRight=4;overflow=hidden;points=[[0,0.5],[1,0.5]];portConstraint=eastwest;rotatable=0;whiteSpace=wrap;html=1;" vertex="1" parent="08lXmjjYTGvoLmH3V8x4-85">
          <mxGeometry y="120" width="170" height="30" as="geometry" />
        </mxCell>
        <mxCell id="08lXmjjYTGvoLmH3V8x4-90" value="TIEMPO" style="text;strokeColor=none;fillColor=none;align=left;verticalAlign=middle;spacingLeft=4;spacingRight=4;overflow=hidden;points=[[0,0.5],[1,0.5]];portConstraint=eastwest;rotatable=0;whiteSpace=wrap;html=1;" vertex="1" parent="08lXmjjYTGvoLmH3V8x4-85">
          <mxGeometry y="150" width="170" height="30" as="geometry" />
        </mxCell>
        <mxCell id="08lXmjjYTGvoLmH3V8x4-119" value="ID_USUARIO" style="text;strokeColor=none;fillColor=none;align=left;verticalAlign=middle;spacingLeft=4;spacingRight=4;overflow=hidden;points=[[0,0.5],[1,0.5]];portConstraint=eastwest;rotatable=0;whiteSpace=wrap;html=1;" vertex="1" parent="08lXmjjYTGvoLmH3V8x4-85">
          <mxGeometry y="180" width="170" height="30" as="geometry" />
        </mxCell>
        <mxCell id="08lXmjjYTGvoLmH3V8x4-95" style="edgeStyle=orthogonalEdgeStyle;rounded=0;orthogonalLoop=1;jettySize=auto;html=1;exitX=0.5;exitY=0;exitDx=0;exitDy=0;entryX=0.2;entryY=0.724;entryDx=0;entryDy=0;entryPerimeter=0;" edge="1" parent="WIyWlLk6GJQsqaUBKTNV-1" source="08lXmjjYTGvoLmH3V8x4-14" target="08lXmjjYTGvoLmH3V8x4-0">
          <mxGeometry relative="1" as="geometry" />
        </mxCell>
        <mxCell id="08lXmjjYTGvoLmH3V8x4-96" style="edgeStyle=orthogonalEdgeStyle;rounded=0;orthogonalLoop=1;jettySize=auto;html=1;exitX=0;exitY=0;exitDx=0;exitDy=0;entryX=0.708;entryY=0.834;entryDx=0;entryDy=0;entryPerimeter=0;" edge="1" parent="WIyWlLk6GJQsqaUBKTNV-1" source="08lXmjjYTGvoLmH3V8x4-15" target="08lXmjjYTGvoLmH3V8x4-0">
          <mxGeometry relative="1" as="geometry" />
        </mxCell>
        <mxCell id="08lXmjjYTGvoLmH3V8x4-116" value="" style="edgeStyle=entityRelationEdgeStyle;fontSize=12;html=1;endArrow=ERmany;rounded=0;entryX=0;entryY=0.5;entryDx=0;entryDy=0;" edge="1" parent="WIyWlLk6GJQsqaUBKTNV-1" target="08lXmjjYTGvoLmH3V8x4-52">
          <mxGeometry width="100" height="100" relative="1" as="geometry">
            <mxPoint x="150" y="630" as="sourcePoint" />
            <mxPoint x="210" y="580" as="targetPoint" />
          </mxGeometry>
        </mxCell>
        <mxCell id="08lXmjjYTGvoLmH3V8x4-117" value="" style="edgeStyle=entityRelationEdgeStyle;fontSize=12;html=1;endArrow=ERmany;rounded=0;entryX=0;entryY=0.5;entryDx=0;entryDy=0;exitX=1;exitY=0.25;exitDx=0;exitDy=0;" edge="1" parent="WIyWlLk6GJQsqaUBKTNV-1" source="08lXmjjYTGvoLmH3V8x4-39" target="08lXmjjYTGvoLmH3V8x4-53">
          <mxGeometry width="100" height="100" relative="1" as="geometry">
            <mxPoint x="160" y="640" as="sourcePoint" />
            <mxPoint x="220" y="740" as="targetPoint" />
          </mxGeometry>
        </mxCell>
        <mxCell id="08lXmjjYTGvoLmH3V8x4-118" value="" style="edgeStyle=entityRelationEdgeStyle;fontSize=12;html=1;endArrow=ERmany;rounded=0;entryX=0;entryY=0.5;entryDx=0;entryDy=0;exitX=1;exitY=0.25;exitDx=0;exitDy=0;" edge="1" parent="WIyWlLk6GJQsqaUBKTNV-1" source="08lXmjjYTGvoLmH3V8x4-44" target="08lXmjjYTGvoLmH3V8x4-51">
          <mxGeometry width="100" height="100" relative="1" as="geometry">
            <mxPoint x="160" y="425" as="sourcePoint" />
            <mxPoint x="220" y="770" as="targetPoint" />
          </mxGeometry>
        </mxCell>
        <mxCell id="08lXmjjYTGvoLmH3V8x4-122" value="" style="edgeStyle=entityRelationEdgeStyle;fontSize=12;html=1;endArrow=ERmany;rounded=0;entryX=1;entryY=0.5;entryDx=0;entryDy=0;exitX=0.002;exitY=0.111;exitDx=0;exitDy=0;exitPerimeter=0;" edge="1" parent="WIyWlLk6GJQsqaUBKTNV-1" source="08lXmjjYTGvoLmH3V8x4-79" target="08lXmjjYTGvoLmH3V8x4-88">
          <mxGeometry width="100" height="100" relative="1" as="geometry">
            <mxPoint x="600" y="730" as="sourcePoint" />
            <mxPoint x="700" y="710" as="targetPoint" />
          </mxGeometry>
        </mxCell>
        <mxCell id="08lXmjjYTGvoLmH3V8x4-123" value="" style="edgeStyle=entityRelationEdgeStyle;fontSize=12;html=1;endArrow=ERmany;rounded=0;entryX=1;entryY=0.5;entryDx=0;entryDy=0;exitX=-0.01;exitY=0.1;exitDx=0;exitDy=0;exitPerimeter=0;" edge="1" parent="WIyWlLk6GJQsqaUBKTNV-1" source="08lXmjjYTGvoLmH3V8x4-56" target="08lXmjjYTGvoLmH3V8x4-89">
          <mxGeometry width="100" height="100" relative="1" as="geometry">
            <mxPoint x="720" y="833" as="sourcePoint" />
            <mxPoint x="600" y="700" as="targetPoint" />
          </mxGeometry>
        </mxCell>
        <mxCell id="08lXmjjYTGvoLmH3V8x4-124" value="" style="edgeStyle=entityRelationEdgeStyle;fontSize=12;html=1;endArrow=ERmany;rounded=0;exitX=0.994;exitY=0.05;exitDx=0;exitDy=0;exitPerimeter=0;entryX=0;entryY=0.5;entryDx=0;entryDy=0;" edge="1" parent="WIyWlLk6GJQsqaUBKTNV-1" source="08lXmjjYTGvoLmH3V8x4-33" target="08lXmjjYTGvoLmH3V8x4-119">
          <mxGeometry width="100" height="100" relative="1" as="geometry">
            <mxPoint x="530" y="670" as="sourcePoint" />
            <mxPoint x="630" y="570" as="targetPoint" />
          </mxGeometry>
        </mxCell>
      </root>
    </mxGraphModel>
  </diagram>
</mxfile>
